<?xml version="1.0" standalone="no"?>
<!DOCTYPE svg PUBLIC "-//W3C//DTD SVG 20010904//EN"
 "http://www.w3.org/TR/2001/REC-SVG-20010904/DTD/svg10.dtd">
<svg version="1.0" xmlns="http://www.w3.org/2000/svg"
 width="32.000000pt" height="32.000000pt" viewBox="0 0 32.000000 32.000000"
 preserveAspectRatio="xMidYMid meet">
<metadata>
Created by potrace 1.16, written by Peter Selinger 2001-2019
</metadata>
<g transform="translate(0.000000,32.000000) scale(0.100000,-0.100000)"
fill="#000000" stroke="none">
<path d="M93 270 c-85 -51 -81 -179 6 -225 116 -60 239 71 171 182 -37 61
-116 81 -177 43z m57 -16 c0 -20 -24 -44 -45 -44 -31 0 -32 14 -3 34 22 16 48
21 48 10z m68 -10 c29 -20 28 -34 -3 -34 -21 0 -45 24 -45 44 0 11 26 6 48
-10z m-128 -64 c8 -14 8 -26 0 -40 -17 -32 -30 -23 -30 20 0 43 13 52 30 20z
m100 5 c14 -17 5 -51 -16 -59 -22 -8 -54 11 -54 32 0 38 46 56 70 27z m70 -25
c0 -44 -9 -50 -28 -20 -10 16 -10 24 0 40 19 30 28 24 28 -20z m-120 -71 c16
-28 4 -36 -27 -19 -36 21 -41 40 -9 40 15 0 30 -8 36 -21z m98 9 c-6 -17 -55
-44 -63 -36 -4 3 -2 16 5 27 12 23 65 31 58 9z"/>
</g>
</svg>
